<?xml version="1.0" encoding="utf-8"?>
<!-- Generator: Adobe Illustrator 19.0.0, SVG Export Plug-In . SVG Version: 6.00 Build 0)  -->
<svg version="1.1" id="Layer_1" xmlns="http://www.w3.org/2000/svg" xmlns:xlink="http://www.w3.org/1999/xlink" x="0px" y="0px"
	 viewBox="63 -59.2 256 290.2" style="enable-background:new 63 -59.2 256 290.2;" xml:space="preserve">
<style type="text/css">
	.st0{fill:#264DE4;}
	.st1{fill:#2965F1;}
	.st2{fill:#EBEBEB;}
	.st3{fill:#FFFFFF;}
</style>
<path class="st0" d="M190.8,230.1L86.7,201.2L63.4-59.2h255.1l-23.2,260.4L190.8,230.1L190.8,230.1z"/>
<path class="st1" d="M275.4,184.5l19.9-222.5H191V208L275.4,184.5L275.4,184.5z"/>
<path class="st2" d="M116.7,58.6l2.9,31.9H191V58.6H116.7L116.7,58.6z"/>
<path class="st2" d="M110.9-6l2.9,31.9H191V-6H110.9L110.9-6z"/>
<path class="st2" d="M191,141.6l-0.1,0l-35.6-9.6l-2.3-25.5H121l4.5,50.1l65.4,18.2l0.1,0V141.6L191,141.6z"/>
<path class="st3" d="M265.1,58.6L270.9-6h-80v31.9h45L233,58.6h-42.1v31.9h39.3l-3.7,41.4l-35.6,9.6v33.2l65.5-18.1l0.5-5.4
	l7.5-84.1L265.1,58.6L265.1,58.6z"/>
</svg>
