<?xml version="1.0" encoding="utf-8"?>
<!-- Generator: Adobe Illustrator 19.0.0, SVG Export Plug-In . SVG Version: 6.00 Build 0)  -->
<svg version="1.1" id="Layer_1" xmlns="http://www.w3.org/2000/svg" xmlns:xlink="http://www.w3.org/1999/xlink" x="0px" y="0px"
	 viewBox="191 1.4 90.8 89" style="enable-background:new 191 1.4 90.8 89;" xml:space="preserve">
<style type="text/css">
	.st0{fill:#21609B;}
</style>
<g transform="translate(0.000000, 8.827586)">
	<path class="st0" d="M279.7,58.6l-0.4,1c-6.9,13.3-19,21.5-36.3,21.9c-8.1,0.2-15.8-1.9-20.8-4.2c-10.9-4.9-20-13.9-25-23.6
		c-7.2-13.9-8.5-33.2,6.4-47.6c0.2,0-1.8,3.1-1.6,3.1l-0.4,1.3c-10.7,33.6,22.3,62.4,54.5,59.1C263.8,69,273.7,64.7,279.7,58.6"/>
	<path class="st0" d="M260.3,44.7c8.1,0.1,16.5-3.7,21.5-9c-4.4,11.1-17,18.3-34,16c-14.2-1.9-27.8-16.2-29.2-30.6
		c-1-10.4,2.6-16.7,8.6-24.2c-2.1,4-2.9,7-3.1,8.9C221.8,28.4,242.2,44.6,260.3,44.7"/>
	<path class="st0" d="M281,16.7c-1.3,2.9-8.5,8.3-11.7,9c-12.7,2.7-20.8-3.3-25-10.1c-0.6-1-1.8-3.8-2-4.5c-1.6-5.6-0.9-14.1,4-18.5
		c-1.5,4.2-1.7,9-0.9,12.2c0.5,1.9,1.9,5.2,3.3,7.3c2.6,3.8,4.3,4.7,7.6,6.8c1.5,0.9,3.1,1.6,3.8,1.8
		C263.4,21.6,270.1,24.1,281,16.7"/>
</g>
</svg>
