<?xml version="1.0" encoding="utf-8"?>
<!-- Generator: Adobe Illustrator 19.0.0, SVG Export Plug-In . SVG Version: 6.00 Build 0)  -->
<svg version="1.1" id="Layer_1" xmlns="http://www.w3.org/2000/svg" xmlns:xlink="http://www.w3.org/1999/xlink" x="0px" y="0px"
	 viewBox="191 -23 63.6 146" style="enable-background:new 191 -23 63.6 146;" xml:space="preserve">
<style type="text/css">
	.st0{fill:#FFFFFF;}
	.st1{fill:#A6A385;}
	.st2{fill:#499D4A;}
	.st3{fill:#58AA50;}
</style>
<g>
	<path class="st0" d="M226.1,119.3l-3.8-1.3c0,0,0.5-19.3-6.5-20.7c-4.6-5.4,0.7-227,17.3-0.7c0,0-5.7,2.9-6.7,7.8
		C225.3,109.2,226.1,119.3,226.1,119.3L226.1,119.3L226.1,119.3z"/>
	<path class="st1" d="M226.1,119.3l-3.8-1.3c0,0,0.5-19.3-6.5-20.7c-4.6-5.4,0.7-227,17.3-0.7c0,0-5.7,2.9-6.7,7.8
		C225.3,109.2,226.1,119.3,226.1,119.3L226.1,119.3L226.1,119.3z"/>
	<path class="st0" d="M228.1,100.7c0,0,33.1-21.8,25.4-67.1c-7.5-32.9-25.1-43.7-27-47.9c-2.1-3-4.2-8.1-4.2-8.1l1.4,91.6
		C223.7,69.3,220.8,97.3,228.1,100.7"/>
	<path class="st2" d="M228.1,100.7c0,0,33.1-21.8,25.4-67.1c-7.5-32.9-25.1-43.7-27-47.9c-2.1-3-4.2-8.1-4.2-8.1l1.4,91.6
		C223.7,69.3,220.8,97.3,228.1,100.7"/>
	<path class="st0" d="M220.3,101.9c0,0-31.1-21.2-29.3-58.6c1.8-37.4,23.7-55.7,28-59.1c2.8-3,2.9-4.1,3-7
		c1.9,4.2,1.6,62.1,1.8,68.9C224.8,72.4,222.5,96.9,220.3,101.9L220.3,101.9L220.3,101.9z"/>
	<path class="st3" d="M220.3,101.9c0,0-31.1-21.2-29.3-58.6c1.8-37.4,23.7-55.7,28-59.1c2.8-3,2.9-4.1,3-7
		c1.9,4.2,1.6,62.1,1.8,68.9C224.8,72.4,222.5,96.9,220.3,101.9L220.3,101.9L220.3,101.9z"/>
</g>
</svg>
