<?xml version="1.0" encoding="utf-8"?>
<!-- Generator: Adobe Illustrator 24.1.2, SVG Export Plug-In . SVG Version: 6.00 Build 0)  -->
<svg version="1.1" id="Layer_1" xmlns="http://www.w3.org/2000/svg" xmlns:xlink="http://www.w3.org/1999/xlink" x="0px" y="0px"
	 viewBox="0 0 256 256" style="enable-background:new 0 0 256 256;" xml:space="preserve">
<style type="text/css">
	.st0{fill-rule:evenodd;clip-rule:evenodd;fill:#F09323;}
	.st1{fill-rule:evenodd;clip-rule:evenodd;fill:#01639F;}
</style>
<path class="st0" d="M155.9,70H50.2c-19,1.5-16,26.8-2,26.6c13-0.2,34.8,0,50.3,0c-22.2,21-71.9,52.8-93.6,73.5
	c-8.4,8-7.9,31.3,16.5,25.9c9.2-5.1,51-39.2,56.7-45c2.9,72.4,84.4,106.4,145.6,63.9c32.5-22.7,43.7-80,18.3-108.3
	C222,84.1,185.4,61.7,141.7,25.2c-7-5.7-27.8-2.8-20.8,14.2C120.9,39.4,139.5,58,155.9,70L155.9,70z M166.6,95.4
	c30.1,0,54.9,22.2,54.9,49.2c0,27.2-24.7,49.3-54.9,49.3c-30.3,0-54.9-22-54.9-49.3C111.7,117.7,136.3,95.4,166.6,95.4L166.6,95.4z"
	/>
<path class="st1" d="M168.5,111.3c18.7,0,34,14.4,34,32.1c0,17.7-15.3,32.1-34,32.1s-34-14.4-34-32.1
	C134.5,125.7,149.8,111.3,168.5,111.3L168.5,111.3z"/>
</svg>
