<?xml version="1.0" encoding="utf-8"?>
<!-- Generator: Adobe Illustrator 24.1.2, SVG Export Plug-In . SVG Version: 6.00 Build 0)  -->
<svg version="1.1" id="Layer_1" xmlns="http://www.w3.org/2000/svg" xmlns:xlink="http://www.w3.org/1999/xlink" x="0px" y="0px"
	 viewBox="0 0 256 256" style="enable-background:new 0 0 256 256;" xml:space="preserve">
<style type="text/css">
	.st0{fill:url(#SVGID_1_);}
	.st1{fill:#E579FF;}
</style>
<radialGradient id="SVGID_1_" cx="-931.5309" cy="42.2287" r="0.3268" gradientTransform="matrix(545.6736 0 0 528.3113 508399.8125 -22244.9023)" gradientUnits="userSpaceOnUse">
	<stop  offset="0" style="stop-color:#442F55;stop-opacity:0.98"/>
	<stop  offset="1" style="stop-color:#12002C"/>
</radialGradient>
<path class="st0" d="M10.7,13.8h234.7V242H10.7V13.8z"/>
<path class="st1" d="M151.3,117.7c0-1.3,0-4.4-0.5-10.3c0-0.9,0.1-1.1,0.9-1.4c6.5-2.7,21.8-7.4,39-7.4c0.9,0,1.3,0.2,1.3,1.1v15.5
	c0,0.9-0.3,1.1-1.2,1.1c-6.7-0.3-16.4,0.5-20.2,2.1v67.2c0,0.9-0.3,1.3-1.3,1.3h-16.7c-0.9,0-1.3-0.3-1.3-1.3L151.3,117.7
	L151.3,117.7z"/>
<path class="st1" d="M92.6,69c-10.6,0-20.6,0.2-27.4,0.5c-0.9,0-1.1,0.5-1.1,1.3h-0.1v114.7c0,1,0.4,1.3,1.3,1.3h16.4
	c1,0,1.3-0.4,1.3-1.3v-41c2.9,0,4.3,0.2,8.3,0.2c24.1,0,43.7-11.6,43.7-38.7C135.1,85.2,122.2,69,92.6,69z M91.7,127.6
	c-4.3,0-6.2,0-8.6-0.2V86.2c1.9-0.1,6-0.3,10.2-0.3c14.3,0,22.6,6.8,22.6,20.4C115.9,123.3,104.2,127.6,91.7,127.6z"/>
<g>
	<path class="st1" d="M10.7,13.8h234.7V242H10.7V13.8z M0,252.7h256V3.1H0V252.7z"/>
</g>
</svg>
