<?xml version="1.0" encoding="utf-8"?>
<!-- Generator: Adobe Illustrator 19.0.0, SVG Export Plug-In . SVG Version: 6.00 Build 0)  -->
<svg version="1.1" id="Layer_1" xmlns="http://www.w3.org/2000/svg" xmlns:xlink="http://www.w3.org/1999/xlink" x="0px" y="0px"
	 viewBox="58 19 50.5 64" style="enable-background:new 58 19 50.5 64;" xml:space="preserve">
<style type="text/css">
	.st0{clip-path:url(#SVGID_2_);}
	.st1{fill:#EF6C00;}
	.st2{fill:#FF9800;}
	.st3{opacity:0.1;fill:#BF360C;enable-background:new    ;}
	.st4{opacity:0.1;fill:#FFFFFF;enable-background:new    ;}
</style>
<g>
	<defs>
		<path id="SVGID_1_" d="M106.3,31.6l-20.9-12c-1.3-0.8-3-0.8-4.4,0l-20.9,12c-1.3,0.8-2.2,2.2-2.2,3.8v24.1c0,1.6,0.8,3,2.2,3.8
			l10.5,6v12.3c0,0.7,0.6,1.3,1.3,1.3c0.2,0,0.4-0.1,0.7-0.2l33.8-19.5c1.3-0.8,2.2-2.2,2.2-3.8V35.4
			C108.5,33.9,107.7,32.4,106.3,31.6z"/>
	</defs>
	<clipPath id="SVGID_2_">
		<use xlink:href="#SVGID_1_"  style="overflow:visible;"/>
	</clipPath>
	<g class="st0">
		<polygon class="st1" points="58,32.9 58,62.1 70.6,69.4 70.6,83.9 108.5,62.1 108.5,32.9 83.3,47.5 		"/>
		<polygon class="st2" points="58,32.9 83.3,18.3 108.5,32.9 83.3,47.5 		"/>
		<polygon class="st3" points="107.9,32.6 82.8,47 58.2,32.8 58,32.9 83.3,47.5 108.5,32.9 		"/>
		<polygon class="st4" points="83.3,47.5 58.2,33 58,33.1 83.3,47.7 		"/>
	</g>
</g>
</svg>
