<?xml version="1.0" encoding="utf-8"?>
<!-- Generator: Adobe Illustrator 24.1.2, SVG Export Plug-In . SVG Version: 6.00 Build 0)  -->
<svg version="1.1" id="Layer_1" xmlns="http://www.w3.org/2000/svg" xmlns:xlink="http://www.w3.org/1999/xlink" x="0px" y="0px"
	 viewBox="0 0 256 256" style="enable-background:new 0 0 256 256;" xml:space="preserve">
<style type="text/css">
	.st0{fill:#008CDB;}
</style>
<g>
	<path class="st0" d="M152,138.8c-6.4,0-12,4-15.2,9.6H42.4c-16,0-28.8-13.6-28.8-29.6s12.8-29.6,28.8-29.6H56
		c0-3.2,1.6-6.4,2.4-9.6c0.8-0.8,0.8-2.4,1.6-3.2c6.4-12,19.2-20,33.6-20c12.8,0,24,6.4,31.2,16c4-1.6,8-3.2,12.8-4
		c-8.8-15.2-24.8-24.8-44-24.8c-21.6,0-40,13.6-48,32.8h-3.2C19.2,76.4,0,95.6,0,119.6S19.2,162,42.4,162h95.2
		c2.4,5.6,8,9.6,15.2,9.6c8.8,0,16-7.2,16-16.8S161.6,138.8,152,138.8z M204.8,106c-9.6-19.2-29.6-32.8-52-32.8
		c-28,0-51.2,20-56.8,46.4c-13.6,1.6-25.6,8.8-32.8,19.2h69.6c4.8-6.4,12-9.6,20-9.6c14.4,0,25.6,12,25.6,26.4
		c0,14.4-12,26.4-25.6,26.4c-8,0-15.2-4-20-9.6H55.2c3.2,22.4,22.4,40,44.8,40h104c28.8,0,52-23.2,52-52.8S232.8,106.8,204.8,106z"
		/>
</g>
</svg>
